<svg width="659" height="488" viewBox="0 0 659 488" fill="none" xmlns="http://www.w3.org/2000/svg">
<g clip-path="url(#clip0)">
<path d="M473.901 289.499L479.081 286.302C479.574 285.99 480.059 285.657 480.558 285.345C469.447 283.434 459.322 277.786 451.858 269.336C444.394 260.886 440.04 250.14 439.516 238.878C439.135 231.133 440.599 223.408 443.788 216.339C446.757 209.725 451.14 203.843 456.63 199.107C462.119 194.371 468.58 190.898 475.558 188.931L475.301 209.32L486.502 187.127C486.548 187.12 486.595 187.12 486.641 187.127C493.131 186.824 499.618 187.803 505.73 190.007C511.843 192.211 517.461 195.597 522.265 199.972C527.068 204.348 530.963 209.626 533.727 215.507C536.49 221.388 538.068 227.755 538.371 234.246C538.412 235.189 538.371 236.118 538.371 237.02C542.268 232.574 545.805 227.81 548.15 222.587C552.893 212.011 553.004 200.034 552.609 185.477C551.86 156.626 550.618 127.56 548.996 98.5779C537.301 97.2791 526.453 91.8527 518.4 83.2736C510.347 74.6945 505.618 63.525 505.061 51.7718C504.991 50.2529 505.012 48.7619 505.061 47.2777C505.061 46.9101 505.061 46.5356 505.116 46.1681C505.213 44.7325 505.345 43.3107 505.567 41.9098C505.567 41.674 505.65 41.4521 505.692 41.2163C505.895 40.028 506.138 38.8537 506.42 37.6932C506.531 37.2632 506.635 36.8263 506.753 36.3963C507.1 35.1341 507.446 33.8926 507.925 32.6651C508.071 32.2559 508.244 31.8606 508.397 31.4584C508.75 30.5568 509.132 29.6691 509.534 28.7883C509.749 28.3236 509.957 27.8659 510.186 27.4012C510.241 27.2833 510.29 27.1654 510.352 27.0475C515.574 16.7337 524.245 8.57568 534.857 3.99157C545.47 -0.592535 557.353 -1.31288 568.442 1.95575L568.109 28.4901L579.206 6.57464C588.308 11.7845 595.505 19.7681 599.747 29.3593C603.99 38.9505 605.054 49.6468 602.786 59.886H602.841C602.765 60.2397 602.654 60.5795 602.571 60.9263C602.418 61.5782 602.252 62.2232 602.071 62.8682C601.835 63.6935 601.572 64.5049 601.301 65.3163C601.093 65.9197 600.892 66.5369 600.663 67.1334C600.33 68.0072 599.97 68.8603 599.568 69.7133C599.346 70.2126 599.145 70.7189 598.874 71.2113C598.241 72.4874 597.547 73.7357 596.793 74.9564C596.537 75.3794 596.246 75.7817 595.975 76.2047C595.448 77.0231 594.914 77.8345 594.338 78.6251C593.985 79.1106 593.603 79.5752 593.229 80.0538C592.688 80.7473 592.133 81.4408 591.557 82.0719C591.148 82.5366 590.732 82.9943 590.302 83.459C589.699 84.097 589.075 84.7143 588.43 85.3246C588.007 85.7338 587.577 86.1429 587.133 86.5313C586.404 87.1763 585.642 87.7935 584.872 88.3969C584.483 88.702 584.109 89.0211 583.707 89.3124C582.537 90.1816 581.328 90.9976 580.08 91.7605C579.844 91.8992 579.594 92.0171 579.386 92.1558C578.346 92.773 577.305 93.3487 576.189 93.8896C575.724 94.1185 575.239 94.3196 574.76 94.5346C573.866 94.9369 572.964 95.3252 572.042 95.6789C571.508 95.8801 570.96 96.0673 570.412 96.2546C569.503 96.5666 568.581 96.851 567.638 97.1076C567.083 97.2602 566.535 97.4127 565.973 97.5445C564.961 97.7872 563.927 97.9884 562.887 98.1618C562.818 98.1618 562.755 98.1618 562.686 98.2034C563.37 110.428 563.978 122.659 564.51 134.898C567.46 128.842 571.616 123.453 576.723 119.061C581.83 114.669 587.781 111.367 594.21 109.357C600.639 107.347 607.411 106.672 614.11 107.373C620.81 108.074 627.295 110.136 633.169 113.433L624.424 137.395L642.414 120.119C652.044 128.946 657.78 141.232 658.365 154.282C658.594 158.861 658.171 163.449 657.109 167.91C654.85 177.562 649.741 186.312 642.447 193.025C635.153 199.738 626.009 204.104 616.203 205.557C606.397 207.009 596.381 205.481 587.453 201.171C578.526 196.861 571.101 189.967 566.14 181.385C566.14 182.626 566.23 183.875 566.264 185.116C566.59 197.96 567 213.939 560.598 228.212C556.264 237.887 549.28 245.744 542.379 252.784C537.892 257.368 533.239 261.799 528.467 266.092C523.776 272.392 517.652 277.484 510.602 280.948C502.765 286.986 494.651 292.64 486.259 297.911L481.162 301.199C476.453 304.118 471.626 307.114 466.889 310.214C467.721 310.131 468.547 310.041 469.393 310.006C479.878 309.515 490.247 312.37 499.004 318.158C507.76 323.946 514.45 332.368 518.106 342.207L487.189 367.375L521.171 359.49C521.162 367.856 519.032 376.084 514.981 383.404C510.929 390.724 505.088 396.898 498.003 401.348C490.919 405.798 482.822 408.38 474.468 408.853C466.115 409.325 457.779 407.672 450.237 404.049C451 405.006 451.77 405.956 452.533 406.906C454.052 408.799 455.564 410.679 457.041 412.544C477.153 438.018 482.757 462.208 472.791 480.649L460.682 474.102C470.391 456.153 455.827 433.184 446.236 421.075C444.786 419.244 443.302 417.399 441.804 415.526C428.953 399.575 414.389 381.46 414.757 359.261C415.277 325.833 447.796 305.672 473.901 289.499Z" fill="#F2F2F2"/>
<path d="M315.901 488C490.369 488 631.803 481.479 631.803 473.436C631.803 465.392 490.369 458.872 315.901 458.872C141.434 458.872 0 465.392 0 473.436C0 481.479 141.434 488 315.901 488Z" fill="#3F3D56"/>
<path d="M571.112 468.006C573.193 464.184 570.835 459.503 568.144 456.091C565.453 452.679 562.173 449.156 562.242 444.793C562.339 438.552 568.962 434.869 574.261 431.561C578.185 429.103 581.804 426.191 585.045 422.885C586.405 421.613 587.53 420.11 588.367 418.446C589.456 416.005 589.428 413.231 589.359 410.554C589.128 401.649 588.688 392.753 588.041 383.867" stroke="#3F3D56" stroke-width="2.77411" stroke-miterlimit="10"/>
<path d="M598.104 383.395C598.027 381.766 597.542 380.182 596.694 378.789C595.845 377.395 594.661 376.237 593.25 375.42L591.072 379.734L591.134 374.518C589.645 374.072 588.07 373.99 586.542 374.279C585.014 374.568 583.578 375.22 582.355 376.18C581.132 377.139 580.157 378.379 579.512 379.794C578.867 381.209 578.572 382.758 578.651 384.311C578.772 386.886 579.912 389.307 581.818 391.042C582.762 391.901 583.866 392.566 585.067 392.999C586.268 393.431 587.543 393.623 588.818 393.562C590.093 393.502 591.344 393.192 592.499 392.648C593.654 392.105 594.69 391.339 595.549 390.395C596.408 389.451 597.073 388.347 597.506 387.146C597.938 385.945 598.13 384.67 598.07 383.395H598.104Z" fill="#FF872C"/>
<path d="M580.745 449.28C579.726 451.26 578.057 452.829 576.019 453.725C573.98 454.621 571.696 454.789 569.548 454.201C567.4 453.613 565.52 452.304 564.222 450.495C562.925 448.685 562.288 446.484 562.42 444.262C562.552 442.039 563.444 439.929 564.946 438.285C566.449 436.642 568.47 435.565 570.673 435.234C572.875 434.904 575.123 435.341 577.042 436.471C578.96 437.602 580.432 439.357 581.21 441.444L575.135 446.388L581.82 444.835C581.821 446.381 581.452 447.905 580.745 449.28Z" fill="#FF872C"/>
<path d="M575.939 430.354C574.662 430.416 573.385 430.224 572.183 429.791C570.98 429.358 569.874 428.691 568.929 427.83C567.985 426.968 567.219 425.929 566.678 424.771C566.136 423.613 565.828 422.359 565.772 421.082C565.695 419.559 565.982 418.039 566.611 416.65C567.194 415.349 568.055 414.192 569.133 413.259C570.212 412.327 571.481 411.643 572.853 411.254L572.804 415.27L575.01 410.901C577.589 410.78 580.111 411.689 582.021 413.428C583.93 415.167 585.07 417.593 585.191 420.173C585.311 422.753 584.402 425.275 582.663 427.184C580.924 429.093 578.498 430.234 575.918 430.354H575.939Z" fill="#FF872C"/>
<path d="M599.568 414.604C596.992 414.725 594.475 413.819 592.568 412.084C590.661 410.349 589.522 407.928 589.401 405.352C589.279 402.777 590.186 400.26 591.921 398.353C593.656 396.446 596.077 395.307 598.652 395.185C600.472 395.096 602.281 395.524 603.867 396.42L602.148 401.136L605.684 397.738C607.583 399.472 608.715 401.889 608.833 404.458C608.877 405.357 608.793 406.259 608.583 407.135C608.098 409.191 606.955 411.033 605.328 412.381C603.701 413.729 601.678 414.51 599.568 414.604Z" fill="#FF872C"/>
<path opacity="0.1" d="M596.793 385.961C594.546 386.211 592.362 386.912 590.108 387.05C587.854 387.189 585.378 386.648 583.949 384.893C583.18 383.95 582.798 382.757 582.146 381.731C581.532 380.772 580.691 379.979 579.698 379.421C579.111 380.649 578.788 381.986 578.751 383.347C578.714 384.707 578.963 386.06 579.483 387.318C580.002 388.576 580.78 389.71 581.766 390.648C582.752 391.586 583.925 392.305 585.207 392.761C586.489 393.216 587.853 393.397 589.21 393.292C590.567 393.186 591.886 392.797 593.082 392.148C594.279 391.5 595.326 390.607 596.155 389.528C596.984 388.449 597.578 387.208 597.896 385.885C597.522 385.899 597.154 385.927 596.793 385.961Z" fill="black"/>
<path opacity="0.1" d="M599.568 414.604C597.889 414.689 596.217 414.337 594.715 413.582C593.213 412.827 591.933 411.696 591 410.298C590.067 408.9 589.513 407.283 589.391 405.607C589.27 403.93 589.587 402.251 590.309 400.734C591.082 401.255 591.746 401.922 592.265 402.696C592.958 403.743 593.374 404.95 594.193 405.914C595.705 407.697 598.298 408.279 600.649 408.168C603.001 408.057 605.261 407.398 607.585 407.183C607.904 407.183 608.237 407.128 608.563 407.121C608.081 409.177 606.942 411.019 605.319 412.37C603.696 413.72 601.677 414.504 599.568 414.604Z" fill="black"/>
<path opacity="0.1" d="M575.939 430.354C574.662 430.416 573.385 430.224 572.183 429.791C570.98 429.358 569.874 428.691 568.929 427.83C567.985 426.968 567.219 425.929 566.678 424.771C566.136 423.613 565.828 422.359 565.772 421.082C565.695 419.559 565.982 418.039 566.611 416.65C567.418 417.178 568.123 417.848 568.692 418.627C569.448 419.695 569.919 420.922 570.772 421.907C572.416 423.738 575.176 424.383 577.666 424.32C580.156 424.258 582.396 423.675 584.795 423.495C584.203 425.41 583.035 427.096 581.45 428.323C579.866 429.551 577.941 430.26 575.939 430.354Z" fill="black"/>
<path opacity="0.1" d="M580.745 449.28C580.222 450.446 579.473 451.496 578.544 452.373C577.614 453.249 576.521 453.933 575.326 454.387C574.132 454.841 572.86 455.055 571.583 455.017C570.306 454.979 569.049 454.69 567.884 454.166C566.718 453.643 565.668 452.895 564.792 451.965C563.915 451.035 563.231 449.942 562.777 448.747C562.323 447.553 562.109 446.281 562.147 445.004C562.185 443.727 562.474 442.47 562.998 441.305C563.797 441.836 564.516 442.478 565.134 443.212C566.056 444.342 566.667 445.619 567.742 446.68C569.732 448.628 572.943 449.454 575.8 449.509C577.452 449.531 579.103 449.454 580.745 449.28Z" fill="black"/>
<path d="M556.437 463.602C556.437 463.602 564.114 463.366 566.431 461.715C568.747 460.065 578.221 458.095 578.824 460.744C579.428 463.394 590.371 473.921 581.695 473.963C573.019 474.005 561.542 472.576 559.232 471.189C556.923 469.802 556.437 463.602 556.437 463.602Z" fill="#656380"/>
<path opacity="0.2" d="M581.848 473.041C573.179 473.11 561.694 471.654 559.385 470.267C557.63 469.198 556.923 465.349 556.694 463.574H556.437C556.437 463.574 556.923 469.767 559.211 471.203C561.5 472.638 572.999 474.032 581.675 473.977C584.178 473.977 585.045 473.061 584.997 471.744C584.671 472.527 583.714 473.027 581.848 473.041Z" fill="black"/>
<path d="M134.828 446.61C129.793 437.289 135.522 425.874 142.069 417.565C148.616 409.257 156.633 400.616 156.46 390.025C156.21 374.81 140.065 365.828 127.165 357.763C117.593 351.777 108.763 344.679 100.86 336.617C97.6902 333.378 94.6178 329.924 92.7731 325.791C90.1099 319.841 90.1793 313.079 90.3526 306.56C90.9075 284.829 91.9801 263.14 93.5706 241.493" stroke="#3F3D56" stroke-width="2.77411" stroke-miterlimit="10"/>
<path d="M69.0406 240.307C69.2305 236.337 70.4147 232.478 72.4844 229.085C74.5541 225.692 77.4431 222.874 80.886 220.888L86.1984 231.395L86.0389 218.676C90.8651 217.254 96.0184 217.402 100.755 219.1C105.491 220.798 109.565 223.957 112.389 228.121C115.213 232.285 116.64 237.239 116.465 242.267C116.29 247.296 114.521 252.138 111.414 256.096C108.307 260.053 104.023 262.921 99.1798 264.285C94.3368 265.648 89.1856 265.438 84.4702 263.683C79.7547 261.928 75.7189 258.72 72.9455 254.522C70.1721 250.324 68.8046 245.354 69.0406 240.328V240.307Z" fill="#FF872C"/>
<path d="M111.36 400.9C113.745 405.55 117.6 409.281 122.325 411.515C127.049 413.748 132.379 414.359 137.487 413.252C142.594 412.145 147.193 409.382 150.569 405.393C153.944 401.403 155.908 396.411 156.154 391.191C156.32 387.909 155.793 384.629 154.608 381.564C152.875 377.069 149.815 373.208 145.836 370.494C141.856 367.779 137.144 366.341 132.326 366.368C127.509 366.396 122.814 367.889 118.866 370.65C114.918 373.41 111.903 377.306 110.222 381.821L125.043 393.875L108.738 390.081C108.731 393.845 109.63 397.556 111.36 400.9Z" fill="#FF872C"/>
<path d="M123.073 354.836C128.892 355.102 134.605 353.219 139.125 349.546C143.645 345.873 146.656 340.665 147.586 334.915C148.515 329.166 147.298 323.275 144.165 318.364C141.033 313.454 136.204 309.867 130.598 308.286L130.723 318.058L125.383 307.426H125.32C119.032 307.133 112.886 309.35 108.232 313.588C103.578 317.827 100.799 323.741 100.506 330.028C100.212 336.316 102.429 342.463 106.668 347.117C110.906 351.77 116.82 354.55 123.108 354.843L123.073 354.836Z" fill="#FF872C"/>
<path d="M65.4689 316.505C69.1427 316.684 72.8077 316.006 76.1748 314.526C79.5419 313.046 82.5189 310.803 84.8707 307.975C87.2226 305.147 88.8849 301.812 89.7266 298.231C90.5682 294.65 90.5661 290.923 89.7205 287.344C88.8748 283.764 87.2087 280.43 84.8537 277.605C82.4986 274.78 79.5192 272.54 76.1504 271.064C72.7816 269.587 69.1158 268.914 65.4423 269.097C61.7687 269.28 58.188 270.315 54.9828 272.119L59.1439 283.611L50.5512 275.309C48.2541 277.4 46.3918 279.922 45.0709 282.733C43.7499 285.544 42.9963 288.588 42.853 291.69C42.7429 293.886 42.946 296.085 43.4564 298.223C44.636 303.251 47.4238 307.757 51.3965 311.056C55.3693 314.355 60.3101 316.268 65.4689 316.505Z" fill="#FF872C"/>
<path opacity="0.1" d="M72.2308 246.632C77.7097 247.235 83.0359 248.934 88.5287 249.274C94.0214 249.614 100.062 248.303 103.537 244.031C105.409 241.729 106.345 238.816 107.927 236.305C109.425 233.966 111.479 232.034 113.905 230.681C115.416 233.688 116.269 236.982 116.41 240.345C116.55 243.708 115.974 247.062 114.719 250.184C113.464 253.307 111.559 256.127 109.13 258.458C106.702 260.788 103.806 262.575 100.634 263.7C97.4626 264.826 94.0878 265.264 90.7338 264.985C87.3799 264.707 84.1235 263.718 81.1809 262.085C78.2382 260.452 75.6766 258.211 73.666 255.512C71.6554 252.813 70.2418 249.718 69.5191 246.431C70.4415 246.472 71.3431 246.535 72.2308 246.632Z" fill="black"/>
<path opacity="0.1" d="M65.4689 316.505C69.5582 316.693 73.6268 315.822 77.2798 313.974C80.9328 312.126 84.0461 309.366 86.3177 305.96C88.5892 302.555 89.9418 298.62 90.2441 294.537C90.5465 290.455 89.7883 286.364 88.0432 282.661C86.1591 283.928 84.5387 285.548 83.2717 287.432C81.5795 289.984 80.5601 292.932 78.5696 295.276C74.8731 299.617 68.562 301.039 62.8335 300.782C57.105 300.526 51.5776 298.889 45.8768 298.369C45.0862 298.3 44.2817 298.244 43.4841 298.223C44.6624 303.247 47.4461 307.749 51.4133 311.048C55.3805 314.347 60.315 316.263 65.4689 316.505Z" fill="black"/>
<path opacity="0.1" d="M123.073 354.836C127.123 355.026 131.153 354.176 134.78 352.365C138.408 350.555 141.511 347.846 143.793 344.496C146.076 341.145 147.462 337.266 147.819 333.228C148.177 329.19 147.493 325.128 145.835 321.429C143.881 322.727 142.181 324.372 140.821 326.283C138.976 328.884 137.825 331.88 135.668 334.28C131.666 338.739 124.939 340.314 118.87 340.168C112.996 340.043 107.337 338.601 101.498 338.15C102.943 342.811 105.79 346.914 109.651 349.899C113.511 352.885 118.198 354.609 123.073 354.836Z" fill="black"/>
<path opacity="0.1" d="M111.36 400.9C113.745 405.55 117.6 409.281 122.325 411.515C127.049 413.748 132.379 414.359 137.487 413.252C142.594 412.145 147.193 409.382 150.569 405.393C153.944 401.403 155.908 396.411 156.154 391.191C156.32 387.909 155.793 384.629 154.608 381.564C152.655 382.847 150.903 384.41 149.406 386.204C147.152 388.978 145.661 392.071 143.054 394.637C138.199 399.395 130.369 401.365 123.399 401.573C119.376 401.587 115.356 401.362 111.36 400.9Z" fill="black"/>
<path d="M299.063 460.467L207.517 479.192L205.436 478.984L124.987 470.87V368.921L223.468 352.277L294.901 360.599L294.922 361.05L294.929 361.272L299.063 460.467Z" fill="#6C63FF"/>
<path opacity="0.1" d="M299.063 460.467L207.517 479.192L205.436 478.984V374.47L294.922 361.05L299.063 460.467Z" fill="black"/>
<path opacity="0.05" d="M294.929 361.272L294.901 361.293L205.436 374.47L124.987 368.921L223.468 352.277L294.901 360.599L294.922 361.05L294.929 361.272Z" fill="black"/>
<path d="M399.624 464.628L308.078 483.353L305.998 483.145L225.549 475.031V373.083L324.029 356.438L395.463 364.76L395.484 365.211L395.49 365.433L399.624 464.628Z" fill="#3F3D56"/>
<path opacity="0.1" d="M399.624 464.628L308.078 483.353L305.998 483.145V378.631L395.484 365.211L399.624 464.628Z" fill="black"/>
<path opacity="0.05" d="M395.49 365.433L395.463 365.454L305.998 378.631L225.549 373.083L324.029 356.438L395.463 364.76L395.484 365.211L395.49 365.433Z" fill="black"/>
<path d="M336.513 364.76L244.967 383.486L242.887 383.277L162.438 375.163V273.215L260.919 256.57L332.352 264.892L332.373 265.343L332.38 265.565L336.513 364.76Z" fill="#3F3D56"/>
<path opacity="0.1" d="M336.513 364.76L244.967 383.486L242.887 383.277V278.763L332.373 265.343L336.513 364.76Z" fill="black"/>
<path opacity="0.05" d="M332.38 265.565L332.352 265.586L242.887 278.763L162.438 273.215L260.919 256.57L332.352 264.892L332.373 265.343L332.38 265.565Z" fill="black"/>
<path d="M388.527 369.032L340.75 378.811L339.662 378.7L297.675 374.463V321.255L349.073 312.565L386.357 316.914L386.371 317.15V317.261L388.527 369.032Z" fill="#3F3D56"/>
<path opacity="0.1" d="M388.527 369.032L340.75 378.811L339.662 378.7V324.154L386.371 317.15L388.527 369.032Z" fill="black"/>
<path opacity="0.05" d="M386.371 317.261L386.357 317.275L339.662 324.154L297.675 321.255L349.073 312.565L386.357 316.914L386.371 317.15V317.261Z" fill="black"/>
<path d="M260.225 265.697L212.448 275.469L211.359 275.365L169.373 271.127V217.92L220.77 209.23L258.054 213.578L258.068 213.814V213.925L260.225 265.697Z" fill="#3F3D56"/>
<path opacity="0.1" d="M260.225 265.697L212.448 275.469L211.359 275.365V220.819L258.068 213.814L260.225 265.697Z" fill="black"/>
<path opacity="0.05" d="M258.068 213.925L258.054 213.939L211.359 220.819L169.373 217.92L220.77 209.23L258.054 213.578L258.068 213.814V213.925Z" fill="black"/>
<path d="M344.142 263.616L296.365 273.388L295.276 273.284L253.29 269.047V215.839L304.687 207.149L341.971 211.498L341.985 211.734V211.845L344.142 263.616Z" fill="#6C63FF"/>
<path opacity="0.1" d="M344.142 263.616L296.365 273.388L295.276 273.284V218.738L341.985 211.734L344.142 263.616Z" fill="black"/>
<path opacity="0.05" d="M341.985 211.845L341.971 211.859L295.276 218.738L253.29 215.839L304.687 207.149L341.971 211.498L341.985 211.734V211.845Z" fill="black"/>
<path d="M369.109 210.215L321.332 219.987L320.243 219.883L278.257 215.645V162.438L329.654 153.748L366.938 158.096L366.952 158.332V158.443L369.109 210.215Z" fill="#3F3D56"/>
<path opacity="0.1" d="M369.109 210.215L321.332 219.987L320.243 219.883V165.337L366.952 158.332L369.109 210.215Z" fill="black"/>
<path opacity="0.05" d="M366.952 158.443L366.938 158.457L320.243 165.337L278.257 162.438L329.654 153.748L366.938 158.096L366.952 158.332V158.443Z" fill="black"/>
<path d="M401.649 101.442C401.143 105.95 397.703 109.584 396.427 113.926C394.513 120.479 397.814 127.519 402.363 132.651C406.03 136.729 410.469 140.038 415.424 142.388C420.379 144.738 425.75 146.082 431.228 146.341C432.837 146.48 434.458 146.303 435.999 145.821C437.372 145.262 438.609 144.416 439.627 143.338C443.039 139.905 444.876 135.154 445.605 130.362C446.333 125.57 446.055 120.694 445.771 115.861C445.771 114.86 445.587 113.868 445.23 112.934C444.766 112.045 444.127 111.26 443.351 110.624C440.891 108.364 438.18 106.393 435.271 104.75C434.023 104.057 432.684 103.363 431.887 102.163C431.339 101.208 430.984 100.155 430.84 99.0633L429.945 94.5138C429.787 93.2021 429.339 91.9418 428.634 90.8242C427.06 88.7021 424.043 88.4108 421.401 88.3067L411.691 87.9253C408.674 87.8074 404.707 86.9405 401.76 87.5369C398.986 88.0848 399.922 90.6231 400.421 92.9256C401.144 95.7104 401.555 98.5667 401.649 101.442Z" fill="#FFC0C6"/>
<path opacity="0.1" d="M401.649 101.442C401.143 105.95 397.703 109.584 396.427 113.926C394.513 120.479 397.814 127.519 402.363 132.651C406.03 136.729 410.469 140.038 415.424 142.388C420.379 144.738 425.75 146.082 431.228 146.341C432.837 146.48 434.458 146.303 435.999 145.821C437.372 145.262 438.609 144.416 439.627 143.338C443.039 139.905 444.876 135.154 445.605 130.362C446.333 125.57 446.055 120.694 445.771 115.861C445.771 114.86 445.587 113.868 445.23 112.934C444.766 112.045 444.127 111.26 443.351 110.624C440.891 108.364 438.18 106.393 435.271 104.75C434.023 104.057 432.684 103.363 431.887 102.163C431.339 101.208 430.984 100.155 430.84 99.0633L429.945 94.5138C429.787 93.2021 429.339 91.9418 428.634 90.8242C427.06 88.7021 424.043 88.4108 421.401 88.3067L411.691 87.9253C408.674 87.8074 404.707 86.9405 401.76 87.5369C398.986 88.0848 399.922 90.6231 400.421 92.9256C401.144 95.7104 401.555 98.5667 401.649 101.442Z" fill="black"/>
<path d="M463.31 304.479L459.191 349.641C458.116 361.487 457.02 373.381 454.912 385.074C454.218 389.103 453.331 393.112 452.318 397.086C449.502 408.12 445.417 418.904 444.1 430.215C444.058 430.541 444.023 430.909 443.989 431.207C443.718 433.704 443.483 436.228 442.602 438.558C441.908 440.285 440.93 441.86 440.216 443.566C438.829 446.978 438.607 450.751 438.434 454.447C433.434 451.625 427.96 449.744 422.281 448.899C419.507 448.49 416.49 448.205 414.653 446.125C412.572 443.864 412.815 440.403 413.162 437.366C414.253 427.934 415.339 418.506 416.421 409.084C416.782 405.029 417.478 401.011 418.502 397.072C418.876 395.761 419.327 394.471 419.785 393.181C420.416 391.406 421.054 389.63 421.532 387.806C422.196 384.876 422.655 381.903 422.906 378.908C424.022 369.421 425.368 359.954 426.547 350.474L426.609 349.974C428.378 335.604 429.723 321.165 429.335 306.691C429.279 304.548 429.189 302.405 429.05 300.255C428.856 297.141 428.572 295.491 431.131 293.542C433.981 291.392 437.733 289.887 440.993 288.479C442.747 287.716 462.069 280.851 462.492 282.362C463.389 285.574 463.855 288.89 463.879 292.224C463.918 296.317 463.728 300.408 463.31 304.479Z" fill="#605D82"/>
<path opacity="0.1" d="M454.912 385.074C454.218 389.103 453.331 393.112 452.318 397.086C449.502 408.12 445.417 418.904 444.1 430.215C444.058 430.541 444.023 430.909 443.989 431.207C435.375 418.904 428.121 405.671 419.715 393.237C420.346 391.461 420.984 389.686 421.463 387.862C422.153 384.915 422.635 381.923 422.906 378.908C424.022 369.421 425.368 359.954 426.547 350.474L426.609 349.974C427.096 351.986 427.793 353.941 428.69 355.807C434.335 367.278 447.748 373.076 454.308 384.054C454.526 384.396 454.727 384.736 454.912 385.074Z" fill="black"/>
<path d="M385.018 284.221C385.303 293.417 386.773 302.537 388.243 311.622L391.274 330.348C392.931 340.612 394.665 351.077 399.52 360.266C403.154 367.146 408.383 373.013 413.12 379.179C424.757 394.339 433.503 411.518 444.537 427.122C447.748 431.658 452.332 436.568 457.804 435.618C461.396 435.001 464.004 432.005 466.82 429.702C470.149 426.984 474.157 424.993 476.779 421.581C479.4 418.169 479.913 412.51 476.363 410.082C475.149 409.257 473.672 408.945 472.299 408.418C466.799 406.337 463.234 400.955 460.973 395.518C458.712 390.081 457.332 384.248 454.315 379.193C447.755 368.214 434.335 362.416 428.69 350.938C425.527 344.516 425.222 337.068 424.986 329.945L424.369 311.699C424.3 309.701 424.251 307.628 425.062 305.804C427.219 300.949 433.738 300.491 439.023 299.874C445.016 299.174 450.822 297.343 456.132 294.478C459.177 292.835 462.145 290.74 463.761 287.689C465.245 284.915 465.446 281.648 465.62 278.499L467.451 245.425C467.61 242.582 467.749 239.634 466.757 236.971C464.24 230.272 455.779 228.08 448.628 228.399C435.327 228.996 423.051 234.717 410.485 238.587C407.371 239.544 404.243 240.404 401.032 241.049C398.258 241.611 394.79 241.382 392.127 242.284C387.355 243.893 387.473 254.337 386.801 258.665C385.413 267.109 384.816 275.665 385.018 284.221Z" fill="#605D82"/>
<path d="M456.001 437.019C457.173 438.205 457.554 439.939 457.859 441.575C459.555 450.659 460.436 459.875 460.495 469.115C460.419 469.977 460.59 470.843 460.987 471.612C461.32 472.067 461.767 472.427 462.284 472.652C465.675 474.268 469.608 472.014 472.437 469.538C477.673 464.954 482.105 458.796 482.403 451.84C482.479 450.05 482.278 448.24 482.59 446.472C483.048 443.85 484.581 441.568 485.926 439.28C488.228 435.379 490.089 431.234 491.475 426.921C491.988 425.298 492.335 423.259 491.058 422.129C490.612 421.774 490.101 421.508 489.553 421.345L474.227 415.658C472.895 415.166 469.594 423.648 469.074 424.577C467.791 426.845 466.515 428.128 463.942 428.655C461.369 429.182 458.192 428.419 455.737 429.73C451.576 431.942 453.65 434.654 456.001 437.019Z" fill="#535070"/>
<path d="M432.365 442.255C432.081 441.689 431.685 441.186 431.2 440.778C430.492 440.327 429.685 440.053 428.849 439.98C425.936 439.481 422.482 439.155 420.464 441.326C418.578 443.358 418.904 446.666 417.33 448.954C416.83 449.648 416.151 450.272 415.721 451.035C415.186 452.203 414.948 453.484 415.027 454.766C414.944 458.296 414.861 461.84 415.11 465.363C415.311 468.318 415.804 471.418 417.656 473.734C420.624 477.451 425.978 477.985 430.722 478.221L434.571 478.422C435.629 478.546 436.702 478.447 437.719 478.131C438.35 477.841 438.916 477.427 439.383 476.913C439.85 476.4 440.209 475.797 440.438 475.142C442.442 470.162 439.273 464.802 437.317 459.808C435.063 454.059 435.465 447.685 432.365 442.255Z" fill="#535070"/>
<path d="M400.539 76.0244C400.49 75.5196 400.564 75.0103 400.754 74.5402C401.316 73.5485 402.786 73.8467 403.896 74.0964C408.355 75.2199 413.057 74.2004 417.656 74.4639C422.254 74.7275 427.427 77.0231 428.35 81.531C431.686 79.1702 434.56 76.2178 436.832 72.8203C438.108 70.9131 439.217 68.7285 439.044 66.4398C438.794 63.1386 436.027 60.6697 433.496 58.5752L425.867 52.3335C424.862 51.4117 423.702 50.6745 422.441 50.1558C420.679 49.5525 418.751 49.8437 416.893 49.8437C411.344 49.8437 405.394 47.3124 400.449 49.8437C398.369 50.9048 396.822 52.7288 395.324 54.5042L388.507 62.5769C387.991 63.0915 387.614 63.7286 387.411 64.4286C387.217 65.4134 387.723 66.3844 387.903 67.3761C388.222 69.1793 387.446 71.1073 388.042 72.8411C389.034 75.7123 392.529 76.1215 394.665 77.7721C395.456 78.3824 396.704 80.4699 397.654 80.4421C399.326 80.4075 400.491 77.3559 400.539 76.0244Z" fill="#3F3D56"/>
<path d="M412.107 99.8332C424.173 99.8332 433.953 90.0523 433.953 77.9871C433.953 65.9218 424.173 56.141 412.107 56.141C400.042 56.141 390.261 65.9218 390.261 77.9871C390.261 90.0523 400.042 99.8332 412.107 99.8332Z" fill="#FFC0C6"/>
<path d="M417.226 125.792C416.486 123.674 415.092 121.847 413.246 120.573C411.4 119.299 409.197 118.645 406.954 118.704C406.311 118.827 405.646 118.742 405.054 118.461C404.719 118.205 404.45 117.872 404.271 117.49C402.946 115.099 401.879 112.575 401.087 109.959C400.74 108.8 400.262 107.434 399.09 107.136C398.147 106.893 397.183 107.504 396.552 108.246C395.992 109.042 395.385 109.804 394.735 110.527C391.96 112.982 387.106 110.742 384.2 112.996C383.721 113.364 383.326 113.835 382.813 114.175C382.313 114.48 381.774 114.713 381.211 114.869C375.57 116.704 370.04 118.864 364.649 121.339C366.591 133.018 368.575 144.919 373.124 155.842C375.288 161.044 377.736 166.141 379.47 171.502C383.312 183.382 383.479 196.095 383.527 208.585C383.527 217.129 383.527 225.854 380.753 233.94C380.129 235.771 379.366 237.588 379.193 239.489C379.019 241.389 379.588 243.539 381.148 244.676C382.052 245.272 383.088 245.636 384.165 245.737C388.957 246.431 393.784 245.169 398.5 244.073C411.143 241.146 424.043 239.468 436.908 237.831L458.477 235.057C460.024 234.949 461.538 234.556 462.943 233.899C466.889 231.742 467.264 225.805 464.808 222.033C463.636 220.222 461.979 218.738 460.987 216.824C459.995 214.91 459.919 212.219 461.618 210.895C465.086 208.19 464.046 203.176 464.212 198.792C464.674 186.531 464.612 174.279 464.025 162.036C463.848 159.497 463.807 156.95 463.9 154.407C464.143 150.093 465.211 145.869 466.279 141.674L472.833 115.874C471.12 113.17 467.839 111.45 464.739 110.673C461.639 109.896 458.4 109.667 455.342 108.717C449.1 106.775 443.496 101.851 436.956 102.309C436.46 102.318 435.973 102.436 435.528 102.656C434.057 103.495 434.286 105.617 434.196 107.309C433.988 111.061 431.228 114.189 428.19 116.388C425.153 118.586 421.671 120.181 418.876 122.685C418.391 123.051 417.992 123.519 417.706 124.055C417.421 124.592 417.257 125.185 417.226 125.792Z" fill="#3F3D56"/>
<path d="M330.667 150.266C329.22 151.207 327.681 151.999 326.075 152.631C324.55 153.235 322.92 153.713 321.672 154.767C321.053 155.304 320.535 155.945 320.139 156.661C319.4 157.972 319.026 159.458 319.057 160.963C319.088 162.468 319.522 163.937 320.314 165.217C321.106 166.497 322.227 167.541 323.56 168.241C324.893 168.94 326.389 169.269 327.892 169.193C329.897 169.089 331.79 168.277 333.628 167.48L349.038 160.773C351.646 159.643 354.461 158.325 355.696 155.759C355.837 155.519 355.891 155.237 355.849 154.962C355.729 154.659 355.502 154.412 355.21 154.268C351.738 152.009 348.7 149.143 346.243 145.807C345.612 144.947 344.856 142.922 343.941 142.402C340.681 140.592 333.281 148.574 330.667 150.266Z" fill="#FFC0C6"/>
<path d="M495.393 144.822L501.073 151.314C502.294 152.701 503.514 154.088 504.624 155.586C507.354 159.346 509.544 163.471 511.129 167.84C512.364 171.079 513.39 174.533 512.96 177.973C512.672 179.736 512.195 181.464 511.538 183.126C510.498 186.32 509.206 189.428 507.675 192.419C506.397 194.689 504.953 196.861 503.355 198.917C498.955 204.747 494.141 210.251 488.95 215.389C487.008 217.31 486.176 220.424 485.351 223.017C483.79 227.81 480.08 231.548 476.494 235.085C475.341 236.304 474.065 237.401 472.687 238.358C470.623 239.69 468.208 240.376 465.752 240.328C464.68 240.334 463.619 240.114 462.638 239.683C460.183 238.518 458.934 235.681 458.678 232.976C458.451 230.519 458.862 228.044 459.87 225.791C463.13 218.572 471.501 215.444 477.417 210.173C480.884 207.087 483.541 203.203 486.162 199.368C487.938 196.971 489.421 194.37 490.58 191.621C491.898 188.091 491.384 183.916 492.543 180.338C493.028 178.819 493.93 177.453 494.422 175.948C494.914 174.443 495.081 172.66 494.158 171.363C493.467 170.534 492.584 169.887 491.585 169.477C487.806 167.563 483.575 165.094 482.854 160.912C482.565 158.596 483.17 156.257 484.546 154.372C485.915 152.511 487.516 150.833 489.311 149.379C490.954 147.895 493.735 146.251 495.393 144.822Z" fill="#FFC0C6"/>
<path d="M327.019 159.324C326.02 157.299 324.765 155.232 322.74 154.226C321.754 153.801 320.692 153.582 319.619 153.582C318.545 153.582 317.483 153.801 316.498 154.226C314.535 155.075 312.697 156.185 311.033 157.528L306.136 161.141C305.027 161.869 304.045 162.776 303.231 163.825C302.454 165.097 301.94 166.512 301.719 167.986C301.025 171.363 300.463 174.838 300.949 178.257C301.726 183.805 305.055 188.605 308.716 192.821C311.005 195.443 313.835 198.092 317.316 198.21C318.821 198.258 320.492 197.662 321.117 196.296C321.334 195.753 321.449 195.174 321.456 194.59C321.831 188.431 319.626 182.418 317.06 176.808C316.366 175.282 315.617 173.701 315.672 172.029C315.651 171.746 315.724 171.463 315.881 171.225C316.101 170.994 316.396 170.849 316.713 170.816C320.229 170.122 326.29 172.855 328.752 168.95C330.347 166.37 328.156 161.619 327.019 159.324Z" fill="#FFC0C6"/>
<path d="M399.388 69.1515C399.345 68.6463 399.421 68.1378 399.61 67.6674C400.172 66.6687 401.642 66.9739 402.752 67.2235C407.211 68.347 411.913 67.3276 416.511 67.5911C421.109 67.8546 426.276 70.1502 427.205 74.6581C430.538 72.2935 433.412 69.3418 435.687 65.9474C436.963 64.0333 438.073 61.8487 437.9 59.5601C437.65 56.2589 434.876 53.7899 432.351 51.7024L424.723 45.4607C423.72 44.539 422.563 43.8017 421.304 43.283C419.535 42.6796 417.614 42.9709 415.755 42.9709C410.207 42.9709 404.257 40.4395 399.312 42.9709C397.231 44.032 395.685 45.856 394.187 47.6314L387.362 55.7041C386.849 56.2198 386.475 56.8567 386.273 57.5558C386.079 58.5406 386.586 59.5115 386.766 60.5033C387.085 62.3064 386.308 64.2344 386.905 65.9613C387.896 68.8394 391.392 69.2486 393.528 70.8992C394.318 71.5095 395.567 73.597 396.517 73.5693C398.161 73.5346 399.326 70.4831 399.388 69.1515Z" fill="#3F3D56"/>
<path d="M352.991 129.017C352.111 129.588 351.336 130.309 350.703 131.146C349.905 132.36 349.739 133.92 349.052 135.168C347.582 137.901 344.135 138.879 341.992 141.119C341.644 141.425 341.402 141.833 341.298 142.284C341.285 142.894 341.489 143.489 341.874 143.962L352.235 160.246C355.703 160.551 358.99 158.388 362.444 158.679C363.727 158.783 365.052 159.227 366.286 158.845C367.168 158.452 367.996 157.946 368.748 157.34C370.829 156.037 373.547 155.884 375.274 154.171C377.001 152.458 377.147 149.94 377.126 147.603C377.157 145.575 376.95 143.55 376.509 141.57C374.983 135.328 370.205 130.515 367.208 124.98C365.745 122.283 364.955 120.708 361.868 122.56C358.782 124.412 355.911 126.881 352.991 129.017Z" fill="#3F3D56"/>
<path d="M478.804 120.785C480.751 122.049 482.507 123.586 484.019 125.348C485.593 127.38 486.488 129.877 488.007 131.957C489.526 134.038 491.475 135.536 493.139 137.395C495.67 140.21 497.383 143.636 499.062 147.042C494.953 152.387 490.476 157.439 485.663 162.16C485.126 162.792 484.418 163.254 483.624 163.492C483.086 163.55 482.541 163.473 482.04 163.268C481.539 163.064 481.097 162.738 480.753 162.32C480.004 161.543 479.477 160.572 478.762 159.761C477.079 158.025 474.836 156.942 472.43 156.702C470.045 156.47 467.644 156.435 465.252 156.598C464.727 156.661 464.196 156.572 463.72 156.342C463.365 156.098 463.079 155.769 462.887 155.385C460.113 150.613 460.98 144.621 461.972 139.17L464.24 126.687C464.571 124.303 465.207 121.972 466.133 119.751C466.993 117.913 468.907 114.793 471.279 115.347C473.651 115.902 476.799 119.342 478.804 120.785Z" fill="#3F3D56"/>
<path d="M281.031 212.295L233.254 222.067L232.165 221.963L190.179 217.726V164.518L241.576 155.828L278.86 160.177L278.874 160.413V160.524L281.031 212.295Z" fill="#6C63FF"/>
<path opacity="0.1" d="M281.031 212.295L233.254 222.067L232.165 221.963V167.417L278.874 160.413L281.031 212.295Z" fill="black"/>
<path opacity="0.05" d="M278.874 160.524L278.86 160.538L232.165 167.417L190.179 164.518L241.576 155.828L278.86 160.177L278.874 160.413V160.524Z" fill="black"/>
<path d="M305.998 159.587L258.221 169.366L257.132 169.255L215.146 165.018V111.81L266.543 103.12L303.827 107.469L303.841 107.705V107.816L305.998 159.587Z" fill="#3F3D56"/>
<path opacity="0.1" d="M305.998 159.587L258.221 169.366L257.132 169.255V114.709L303.841 107.705L305.998 159.587Z" fill="black"/>
<path opacity="0.05" d="M303.841 107.816L303.827 107.83L257.132 114.709L215.146 111.81L266.543 103.12L303.827 107.469L303.841 107.705V107.816Z" fill="black"/>
</g>
<defs>
<clipPath id="clip0">
<rect width="658.552" height="488" fill="white"/>
</clipPath>
</defs>
</svg>
