<svg width="592" height="495" viewBox="0 0 592 495" fill="none" xmlns="http://www.w3.org/2000/svg">
<g clip-path="url(#clip0)">
<path d="M27.5081 470.916C35.7198 486.145 53.1478 492.682 53.1478 492.682C53.1478 492.682 57.2622 474.529 49.0505 459.3C40.8389 444.071 23.4108 437.534 23.4108 437.534C23.4108 437.534 19.2965 455.687 27.5081 470.916Z" fill="#2F2E41"/>
<path d="M33.1523 465.906C47.9777 474.825 53.6875 492.542 53.6875 492.542C53.6875 492.542 35.3605 495.797 20.5351 486.878C5.70972 477.958 0 460.242 0 460.242C0 460.242 18.327 456.987 33.1523 465.906Z" fill="#6C63FF"/>
<path d="M365.539 23.7247H273.039V25.0462H365.539V23.7247Z" fill="#F2F2F2"/>
<path d="M340.432 24.7158H339.111V36.939H340.432V24.7158Z" fill="#F2F2F2"/>
<path d="M300.128 24.7158H298.807V36.939H300.128V24.7158Z" fill="#F2F2F2"/>
<path d="M412.45 87.1533H319.95V88.4747H412.45V87.1533Z" fill="#F2F2F2"/>
<path d="M346.378 75.2605H345.057V87.4837H346.378V75.2605Z" fill="#F2F2F2"/>
<path d="M386.682 75.2605H385.361V87.4837H386.682V75.2605Z" fill="#F2F2F2"/>
<path d="M535.343 116.886H442.843V118.207H535.343V116.886Z" fill="#F2F2F2"/>
<path d="M469.271 104.993H467.95V117.216H469.271V104.993Z" fill="#F2F2F2"/>
<path d="M509.575 104.993H508.253V117.216H509.575V104.993Z" fill="#F2F2F2"/>
<path d="M526.093 423.457H433.593V424.778H526.093V423.457Z" fill="#F2F2F2"/>
<path d="M460.021 411.564H458.7V423.787H460.021V411.564Z" fill="#F2F2F2"/>
<path d="M500.325 411.564H499.003V423.787H500.325V411.564Z" fill="#F2F2F2"/>
<path d="M368.182 211.368H275.682V212.689H368.182V211.368Z" fill="#F2F2F2"/>
<path d="M302.111 199.475H300.789V211.698H302.111V199.475Z" fill="#F2F2F2"/>
<path d="M342.414 199.475H341.093V211.698H342.414V199.475Z" fill="#F2F2F2"/>
<path d="M397.253 370.6H304.753V371.921H397.253V370.6Z" fill="#F2F2F2"/>
<path d="M331.182 358.707H329.861V370.93H331.182V358.707Z" fill="#F2F2F2"/>
<path d="M371.486 358.707H370.164V370.93H371.486V358.707Z" fill="#F2F2F2"/>
<path d="M545.253 322.368H452.753V323.689H545.253V322.368Z" fill="#F2F2F2"/>
<path d="M479.182 310.475H477.861V322.698H479.182V310.475Z" fill="#F2F2F2"/>
<path d="M519.486 310.475H518.164V322.698H519.486V310.475Z" fill="#F2F2F2"/>
<path d="M239.218 463.943H82.7703V462.818H238.092V408.23H95.9224L89.016 393.841L90.0309 393.354L96.6307 407.104H239.218V463.943Z" fill="#2F2E41"/>
<path d="M103.592 491.518C110.119 491.518 115.41 486.227 115.41 479.7C115.41 473.173 110.119 467.882 103.592 467.882C97.0655 467.882 91.7744 473.173 91.7744 479.7C91.7744 486.227 97.0655 491.518 103.592 491.518Z" fill="#3F3D56"/>
<path d="M220.084 491.518C226.611 491.518 231.902 486.227 231.902 479.7C231.902 473.173 226.611 467.882 220.084 467.882C213.557 467.882 208.266 473.173 208.266 479.7C208.266 486.227 213.557 491.518 220.084 491.518Z" fill="#3F3D56"/>
<path d="M357.398 236.024C361.439 236.024 364.714 232.749 364.714 228.708C364.714 224.668 361.439 221.392 357.398 221.392C353.358 221.392 350.082 224.668 350.082 228.708C350.082 232.749 353.358 236.024 357.398 236.024Z" fill="#3F3D56"/>
<path d="M255.951 389.658H80.1029L42.0535 265.288H295.136L294.906 266.02L255.951 389.658ZM80.9355 388.533H255.126L293.602 266.413H43.5747L80.9355 388.533Z" fill="#2F2E41"/>
<path d="M242.224 383.187H87.7706L54.3503 272.885H276.642L276.44 273.534L242.224 383.187Z" fill="#F2F2F2"/>
<path d="M298.289 254.177L297.201 253.888L304.628 225.894H347.832V227.02H305.494L298.289 254.177Z" fill="#2F2E41"/>
<path d="M282.489 302.993H54.3492V304.118H282.489V302.993Z" fill="#2F2E41"/>
<path d="M269.424 344.459H67.0354V345.585H269.424V344.459Z" fill="#2F2E41"/>
<path d="M169.154 265.851H168.029V389.096H169.154V265.851Z" fill="#2F2E41"/>
<path d="M219.546 265.815L211.467 389.057L212.59 389.131L220.669 265.889L219.546 265.815Z" fill="#2F2E41"/>
<path d="M117.66 265.814L116.537 265.887L124.57 389.132L125.693 389.059L117.66 265.814Z" fill="#2F2E41"/>
<path d="M592 492.232H0V493.554H592V492.232Z" fill="#2F2E41"/>
<path d="M393.396 40.8823C393.396 40.8823 403.055 68.3722 397.111 72.6014C391.167 76.8306 417.171 111.369 417.171 111.369L448.376 102.911L431.288 74.0111C431.288 74.0111 429.059 45.1115 429.059 40.8823C429.059 36.6531 393.396 40.8823 393.396 40.8823Z" fill="#A0616A"/>
<path opacity="0.1" d="M393.396 40.8823C393.396 40.8823 403.055 68.3722 397.111 72.6014C391.167 76.8306 417.171 111.369 417.171 111.369L448.376 102.911L431.288 74.0111C431.288 74.0111 429.059 45.1115 429.059 40.8823C429.059 36.6531 393.396 40.8823 393.396 40.8823Z" fill="black"/>
<path d="M377.184 236.836C377.184 236.836 374.365 272.079 377.184 290.406C380.004 308.732 384.233 359.483 384.233 359.483C384.233 359.483 384.233 455.345 399.74 456.755C415.247 458.164 426.525 459.574 427.935 453.935C429.345 448.296 420.886 445.477 425.115 442.657C429.345 439.838 430.754 429.97 425.115 418.692C419.476 407.414 425.115 293.225 425.115 293.225L451.9 365.122C451.9 365.122 454.72 424.331 457.539 432.789C460.359 441.248 454.72 456.755 464.588 458.164C474.456 459.574 485.734 451.116 491.373 448.296C497.012 445.477 482.915 445.477 485.734 444.067C488.554 442.657 497.012 438.428 494.192 437.018C491.373 435.609 488.554 367.941 488.554 367.941C488.554 367.941 480.8 223.443 470.932 217.804C461.064 212.165 454.72 221.878 454.72 221.878L377.184 236.836Z" fill="#2F2E41"/>
<path d="M402.56 451.116V462.393C402.56 462.393 389.872 493.05 402.56 493.05C415.247 493.05 425.115 496.227 425.115 491.998V453.935L402.56 451.116Z" fill="#2F2E41"/>
<path d="M485.734 451.096V462.373C485.734 462.373 498.422 493.03 485.734 493.03C473.046 493.03 463.178 496.207 463.178 491.978V453.915L485.734 451.096Z" fill="#2F2E41"/>
<path d="M413.133 61.3236C427.147 61.3236 438.508 49.9627 438.508 35.9483C438.508 21.9339 427.147 10.573 413.133 10.573C399.118 10.573 387.757 21.9339 387.757 35.9483C387.757 49.9627 399.118 61.3236 413.133 61.3236Z" fill="#A0616A"/>
<path d="M405.379 83.1745C405.379 83.1745 412.428 104.321 423.706 100.091L434.984 95.8621L454.72 231.197C454.72 231.197 439.213 253.753 416.657 239.655C394.101 225.558 405.379 83.1745 405.379 83.1745Z" fill="#6C63FF"/>
<path d="M425.115 78.9453L431.459 65.5528C431.459 65.5528 468.817 83.1745 474.456 88.8135C480.095 94.4524 480.095 102.911 480.095 102.911L470.227 138.154C470.227 138.154 473.047 215.69 473.047 218.509C473.047 221.329 482.915 236.836 475.866 231.197C468.817 225.558 467.408 219.919 461.769 228.377C456.13 236.836 443.442 246.704 443.442 246.704L425.115 78.9453Z" fill="#3F3D56"/>
<path d="M474.456 180.446L470.227 219.919C470.227 219.919 444.852 242.475 450.491 243.884C456.13 245.294 458.949 239.655 458.949 239.655C458.949 239.655 468.817 249.523 474.456 243.884C480.095 238.246 494.192 184.676 494.192 184.676L474.456 180.446Z" fill="#A0616A"/>
<path d="M413.673 0.0858077C408.048 -0.115294 402.028 -0.214772 397.285 2.81668C395.103 4.33803 393.188 6.21173 391.621 8.36108C387.002 14.2008 383.01 21.5485 384.726 28.7939L386.719 28.0167C386.719 29.9507 386.289 31.8605 385.46 33.608C385.741 32.792 386.681 34.1112 386.429 34.9366L384.234 42.1389C387.843 40.8158 392.332 43.4946 392.881 47.2988C393.132 38.9334 394 29.3408 400.786 24.4425C404.208 21.9723 408.539 21.2182 412.706 20.5486C416.551 19.9308 420.581 19.3418 424.263 20.6073C427.945 21.8729 431.081 25.6387 430.246 29.4417C431.944 28.8568 433.842 30.0401 434.681 31.6277C435.521 33.2153 435.565 35.0882 435.59 36.8837C437.4 38.1627 439.459 35.6229 440.197 33.5332C441.928 28.6278 443.467 23.4061 442.534 18.2885C441.602 13.1709 437.431 8.28017 432.23 8.26282C432.861 7.56929 433.198 6.65735 433.169 5.7199L428.881 5.35763C429.97 5.20351 430.971 4.67574 431.713 3.86472C429.992 5.75894 416.457 0.185318 413.673 0.0858077Z" fill="#2F2E41"/>
<path d="M412.428 74.7161C412.428 74.7161 400.952 63.4702 396.822 64.1591C392.691 64.8479 387.052 74.7161 387.052 74.7161C387.052 74.7161 353.219 85.994 354.629 97.2719C356.038 108.55 371.545 163.529 371.545 163.529C371.545 163.529 384.233 229.787 372.955 236.836C361.677 243.884 426.525 262.211 427.935 253.753C429.345 245.294 432.164 160.71 427.935 148.022C423.706 135.335 412.428 74.7161 412.428 74.7161Z" fill="#3F3D56"/>
<path d="M461.769 97.2718H479.2C479.2 97.2718 491.373 150.842 492.783 156.481C494.193 162.12 497.012 188.905 495.602 188.905C494.192 188.905 465.998 183.266 465.998 187.495L461.769 97.2718Z" fill="#3F3D56"/>
<path d="M461.179 229.929H394.446C387.934 199.972 387.39 171.028 394.446 143.375H461.179C450.409 170.531 449.737 199.276 461.179 229.929Z" fill="#FF872C"/>
<path d="M367.316 193.134L387.052 201.592C387.052 201.592 425.115 207.231 425.115 191.724C425.115 176.217 387.052 184.675 387.052 184.675L374.364 180.619L367.316 193.134Z" fill="#A0616A"/>
<path d="M371.545 88.8133L354.629 93.0426L341.941 167.759C341.941 167.759 337.712 187.495 344.76 188.905C351.809 190.314 371.545 201.592 371.545 201.592C371.545 201.592 374.365 180.446 380.004 180.446L365.906 169.168L374.365 119.828L371.545 88.8133Z" fill="#3F3D56"/>
<path d="M132.307 233.171H39.807V234.493H132.307V233.171Z" fill="#F2F2F2"/>
<path d="M66.2356 221.278H64.9142V233.502H66.2356V221.278Z" fill="#F2F2F2"/>
<path d="M106.539 221.278H105.218V233.502H106.539V221.278Z" fill="#F2F2F2"/>
<path d="M164.682 37.5997H72.182V38.9212H164.682V37.5997Z" fill="#F2F2F2"/>
<path d="M139.575 38.5908H138.253V50.814H139.575V38.5908Z" fill="#F2F2F2"/>
<path d="M99.2714 38.5908H97.95V50.814H99.2714V38.5908Z" fill="#F2F2F2"/>
<path d="M257.843 167.761H165.343V169.082H257.843V167.761Z" fill="#F2F2F2"/>
<path d="M232.736 168.752H231.414V180.975H232.736V168.752Z" fill="#F2F2F2"/>
<path d="M192.432 168.752H191.111V180.975H192.432V168.752Z" fill="#F2F2F2"/>
<path d="M100.593 167.1H8.09277V168.421H100.593V167.1Z" fill="#F2F2F2"/>
<path d="M75.4856 168.091H74.1642V180.314H75.4856V168.091Z" fill="#F2F2F2"/>
<path d="M35.182 168.091H33.8606V180.314H35.182V168.091Z" fill="#F2F2F2"/>
<path d="M211.593 101.028H119.093V102.35H211.593V101.028Z" fill="#F2F2F2"/>
<path d="M145.521 89.1355H144.2V101.359H145.521V89.1355Z" fill="#F2F2F2"/>
<path d="M185.825 89.1355H184.503V101.359H185.825V89.1355Z" fill="#F2F2F2"/>
</g>
<defs>
<clipPath id="clip0">
<rect width="592" height="494.195" fill="white"/>
</clipPath>
</defs>
</svg>
